<svg width="56" height="48" viewBox="0 0 56 48" fill="none" xmlns="http://www.w3.org/2000/svg">
<path d="M18.7757 22.978C18.1574 22.978 17.565 22.8981 16.9982 22.7382C16.4315 22.5711 15.9752 22.3567 15.6293 22.0951L16.2365 20.7653C16.5677 20.9978 16.9578 21.1904 17.4067 21.343C17.863 21.4883 18.323 21.561 18.7867 21.561C19.14 21.561 19.4234 21.5283 19.6368 21.4629C19.8576 21.3902 20.0195 21.2921 20.1226 21.1686C20.2256 21.0452 20.2771 20.9034 20.2771 20.7435C20.2771 20.5401 20.1962 20.3802 20.0342 20.264C19.8723 20.1404 19.6589 20.0423 19.3939 19.9697C19.129 19.8898 18.8346 19.8171 18.5107 19.7517C18.1942 19.679 17.8741 19.5918 17.5502 19.4901C17.2338 19.3884 16.943 19.2576 16.6781 19.0977C16.4131 18.9378 16.196 18.7271 16.0267 18.4655C15.8648 18.2039 15.7838 17.8697 15.7838 17.4628C15.7838 17.0268 15.9016 16.6308 16.1371 16.2747C16.38 15.9114 16.7406 15.6244 17.219 15.4137C17.7048 15.1957 18.312 15.0867 19.0406 15.0867C19.5264 15.0867 20.0048 15.1448 20.4758 15.2611C20.9469 15.3701 21.3626 15.5372 21.7233 15.7624L21.1714 17.1031C20.8107 16.8996 20.4501 16.7507 20.0894 16.6562C19.7288 16.5545 19.3755 16.5036 19.0296 16.5036C18.6837 16.5036 18.4003 16.5436 18.1795 16.6235C17.9587 16.7034 17.8005 16.8088 17.7048 16.9396C17.6091 17.0631 17.5613 17.2085 17.5613 17.3756C17.5613 17.5718 17.6422 17.7316 17.8042 17.8552C17.9661 17.9714 18.1795 18.0659 18.4445 18.1385C18.7094 18.2112 19.0002 18.2839 19.3166 18.3565C19.6405 18.4292 19.9606 18.5128 20.2771 18.6072C20.601 18.7017 20.8954 18.8288 21.1603 18.9887C21.4252 19.1486 21.6386 19.3593 21.8006 19.6209C21.9698 19.8825 22.0545 20.2131 22.0545 20.6127C22.0545 21.0414 21.9331 21.4338 21.6902 21.7899C21.4473 22.146 21.083 22.433 20.5973 22.651C20.1189 22.869 19.5117 22.978 18.7757 22.978ZM26.7983 22.8472V21.7027L26.6879 21.452V19.4029C26.6879 19.0396 26.5739 18.7562 26.3457 18.5527C26.1249 18.3493 25.7826 18.2475 25.319 18.2475C25.0026 18.2475 24.6897 18.2984 24.3806 18.4001C24.0789 18.4946 23.8213 18.6254 23.6078 18.7925L22.9895 17.6045C23.3135 17.3792 23.7035 17.2048 24.1598 17.0813C24.6162 16.9578 25.0799 16.896 25.5508 16.896C26.4561 16.896 27.159 17.1067 27.6594 17.5282C28.1601 17.9496 28.4102 18.6072 28.4102 19.501V22.8472H26.7983ZM24.9878 22.9344C24.5241 22.9344 24.1266 22.8581 23.7954 22.7055C23.4642 22.5455 23.2103 22.3313 23.0337 22.0624C22.857 21.7935 22.7687 21.4921 22.7687 21.1577C22.7687 20.8089 22.8534 20.5038 23.0226 20.2422C23.1993 19.9806 23.4753 19.7771 23.8506 19.6318C24.226 19.4792 24.7156 19.4029 25.319 19.4029H26.8977V20.3948H25.5066C25.102 20.3948 24.8222 20.4602 24.6676 20.5909C24.5205 20.7217 24.4468 20.8852 24.4468 21.0814C24.4468 21.2994 24.5315 21.4738 24.7007 21.6046C24.8774 21.7281 25.1166 21.7899 25.4183 21.7899C25.7054 21.7899 25.9631 21.7245 26.1911 21.5937C26.4194 21.4556 26.585 21.2558 26.6879 20.9942L26.9529 21.779C26.8278 22.1569 26.5996 22.4439 26.2684 22.6401C25.9372 22.8363 25.5105 22.9344 24.9878 22.9344ZM37.5755 16.896C38.0466 16.896 38.4623 16.9905 38.823 17.1794C39.1909 17.3611 39.478 17.6444 39.6841 18.0296C39.8975 18.4074 40.0043 18.8942 40.0043 19.4901V22.8472H38.282V19.7517C38.282 19.2794 38.1827 18.9306 37.984 18.7053C37.7853 18.4801 37.5056 18.3674 37.1449 18.3674C36.8946 18.3674 36.6702 18.4256 36.4715 18.5418C36.2728 18.6508 36.1182 18.8179 36.0078 19.0432C35.8974 19.2685 35.8422 19.5555 35.8422 19.9043V22.8472H34.12V19.7517C34.12 19.2794 34.0206 18.9306 33.8219 18.7053C33.6306 18.4801 33.3546 18.3674 32.9939 18.3674C32.7436 18.3674 32.5192 18.4256 32.3204 18.5418C32.1217 18.6508 31.9672 18.8179 31.8568 19.0432C31.7464 19.2685 31.6912 19.5555 31.6912 19.9043V22.8472H29.9689V16.9832H31.6139V18.5854L31.3048 18.1167C31.5109 17.7171 31.8016 17.4156 32.1769 17.2121C32.5597 17.0014 32.9939 16.896 33.4797 16.896C34.0242 16.896 34.4989 17.0341 34.9038 17.3102C35.3159 17.579 35.5883 17.9932 35.7208 18.5527L35.1136 18.3892C35.3123 17.9315 35.6288 17.5681 36.063 17.2993C36.5046 17.0304 37.0088 16.896 37.5755 16.896ZM45.1912 22.8472V21.7027L45.0808 21.452V19.4029C45.0808 19.0396 44.9668 18.7562 44.7385 18.5527C44.5177 18.3493 44.1755 18.2475 43.7118 18.2475C43.3953 18.2475 43.0825 18.2984 42.7734 18.4001C42.4717 18.4946 42.214 18.6254 42.0006 18.7925L41.3824 17.6045C41.7062 17.3792 42.0964 17.2048 42.5526 17.0813C43.0089 16.9578 43.4726 16.896 43.9437 16.896C44.8489 16.896 45.5519 17.1067 46.0523 17.5282C46.5527 17.9496 46.803 18.6072 46.803 19.501V22.8472H45.1912ZM43.3806 22.9344C42.9169 22.9344 42.5195 22.8581 42.1883 22.7055C41.8571 22.5455 41.6032 22.3313 41.4265 22.0624C41.2499 21.7935 41.1616 21.4921 41.1616 21.1577C41.1616 20.8089 41.2463 20.5038 41.4155 20.2422C41.5921 19.9806 41.8681 19.7771 42.2435 19.6318C42.6189 19.4792 43.1082 19.4029 43.7118 19.4029H45.2905V20.3948H43.8995C43.4946 20.3948 43.215 20.4602 43.0605 20.5909C42.9133 20.7217 42.8397 20.8852 42.8397 21.0814C42.8397 21.2994 42.9244 21.4738 43.0936 21.6046C43.2702 21.7281 43.5095 21.7899 43.8112 21.7899C44.0982 21.7899 44.3557 21.7245 44.584 21.5937C44.8122 21.4556 44.9778 21.2558 45.0808 20.9942L45.3457 21.779C45.2207 22.1569 44.9925 22.4439 44.6613 22.6401C44.3301 22.8363 43.9031 22.9344 43.3806 22.9344ZM51.9719 16.896C52.443 16.896 52.8625 16.9905 53.2304 17.1794C53.6058 17.3611 53.9003 17.6444 54.1136 18.0296C54.327 18.4074 54.4338 18.8942 54.4338 19.4901V22.8472H52.7115V19.7517C52.7115 19.2794 52.6047 18.9306 52.3914 18.7053C52.1852 18.4801 51.891 18.3674 51.5082 18.3674C51.2358 18.3674 50.9893 18.4256 50.7685 18.5418C50.5551 18.6508 50.3857 18.8216 50.2607 19.0541C50.1428 19.2866 50.084 19.5846 50.084 19.9479V22.8472H48.3618V16.9832H50.0067V18.6072L49.6976 18.1167C49.911 17.7244 50.2165 17.4228 50.6139 17.2121C51.0114 17.0014 51.464 16.896 51.9719 16.896ZM24.6307 27.8735H28.3401V29.2905H24.6307V27.8735ZM24.7631 32.0699H22.9747V24.4402H28.8148V25.8571H24.7631V32.0699ZM29.9042 32.0699V23.9824H31.6264V32.0699H29.9042ZM33.2249 32.0699V26.2059H34.9471V32.0699H33.2249ZM34.086 25.3884C33.7695 25.3884 33.5119 25.2977 33.3132 25.1159C33.1145 24.9342 33.0151 24.7091 33.0151 24.4402C33.0151 24.1712 33.1145 23.9461 33.3132 23.7644C33.5119 23.5827 33.7695 23.4919 34.086 23.4919C34.4026 23.4919 34.6601 23.5791 34.8588 23.7535C35.0575 23.9206 35.1569 24.1385 35.1569 24.4075C35.1569 24.6909 35.0575 24.9271 34.8588 25.1159C34.6675 25.2977 34.4098 25.3884 34.086 25.3884ZM39.416 32.1571C38.7757 32.1571 38.2052 32.0298 37.7048 31.7756C37.2042 31.514 36.8105 31.1543 36.5235 30.6965C36.2437 30.2387 36.104 29.7191 36.104 29.1379C36.104 28.5493 36.2437 28.0297 36.5235 27.5792C36.8105 27.1215 37.2042 26.7653 37.7048 26.5111C38.2052 26.2495 38.7757 26.1187 39.416 26.1187C40.0414 26.1187 40.5862 26.2495 41.0499 26.5111C41.5136 26.7653 41.8558 27.1324 42.0766 27.6119L40.7408 28.3204C40.5862 28.0444 40.3911 27.8408 40.1557 27.71C39.9274 27.5792 39.6771 27.5139 39.4049 27.5139C39.1105 27.5139 38.8455 27.5792 38.6101 27.71C38.3744 27.8408 38.1867 28.0261 38.047 28.2659C37.9145 28.5057 37.8483 28.7964 37.8483 29.1379C37.8483 29.4793 37.9145 29.7701 38.047 30.0098C38.1867 30.2496 38.3744 30.4349 38.6101 30.5657C38.8455 30.6965 39.1105 30.7619 39.4049 30.7619C39.6771 30.7619 39.9274 30.7001 40.1557 30.5766C40.3911 30.4458 40.5862 30.2387 40.7408 29.9554L42.0766 30.6747C41.8558 31.147 41.5136 31.514 41.0499 31.7756C40.5862 32.0298 40.0414 32.1571 39.416 32.1571ZM44.46 30.8709L44.5042 28.8L47.2752 26.2059H49.3286L46.668 28.8763L45.7738 29.5957L44.46 30.8709ZM43.0358 32.0699V23.9824H44.7581V32.0699H43.0358ZM47.4629 32.0699L45.4536 29.6066L46.5355 28.2877L49.5494 32.0699H47.4629ZM52.1281 32.1571C51.6203 32.1571 51.1309 32.099 50.6598 31.9827C50.1961 31.8592 49.8282 31.7066 49.5558 31.5249L50.1299 30.3041C50.4023 30.4712 50.7224 30.6093 51.0904 30.7183C51.4657 30.82 51.8337 30.8709 52.1944 30.8709C52.5918 30.8709 52.8714 30.8238 53.0334 30.7292C53.2026 30.6347 53.2873 30.5039 53.2873 30.3368C53.2873 30.1987 53.2211 30.097 53.0886 30.0316C52.9635 29.9589 52.7941 29.9044 52.5808 29.8682C52.3674 29.8319 52.1317 29.7954 51.8742 29.7592C51.6239 29.7229 51.37 29.6755 51.1124 29.6175C50.8549 29.5521 50.6193 29.4575 50.4059 29.3341C50.1925 29.2106 50.0195 29.0434 49.887 28.8327C49.762 28.622 49.6993 28.3496 49.6993 28.0152C49.6993 27.6446 49.8061 27.3177 50.0195 27.0343C50.2403 26.7509 50.5568 26.5293 50.9689 26.3694C51.381 26.2023 51.8742 26.1187 52.4483 26.1187C52.8532 26.1187 53.2652 26.1623 53.6848 26.2495C54.1043 26.3367 54.454 26.4639 54.7336 26.631L54.1595 27.8408C53.8724 27.6738 53.5818 27.561 53.2873 27.503C53.0003 27.4376 52.7207 27.4049 52.4483 27.4049C52.0655 27.4049 51.7859 27.4558 51.6092 27.5574C51.4326 27.6591 51.3443 27.7899 51.3443 27.9498C51.3443 28.0951 51.4069 28.2041 51.532 28.2768C51.6644 28.3496 51.8375 28.4076 52.0508 28.4512C52.2642 28.4948 52.496 28.5348 52.7464 28.5711C53.0039 28.6002 53.2616 28.6474 53.5192 28.7128C53.7767 28.7782 54.0085 28.8727 54.2147 28.9962C54.4281 29.1125 54.6011 29.276 54.7336 29.4867C54.866 29.6902 54.9323 29.9589 54.9323 30.2932C54.9323 30.6565 54.8219 30.9799 54.6011 31.2633C54.3803 31.5393 54.0601 31.7573 53.6406 31.9173C53.2285 32.0772 52.7243 32.1571 52.1281 32.1571Z" fill="#F0F0FF"/>
<path fill-rule="evenodd" clip-rule="evenodd" d="M0 24.4341H20.3815V47.9101H19.3086C19.3757 46.6759 19.411 45.3933 19.411 44.0774C19.411 34.2871 17.4556 26.3505 15.0435 26.3505C12.6314 26.3505 10.676 34.2871 10.676 44.0774C10.676 45.3933 10.7114 46.6759 10.7784 47.9101H9.60314C9.67017 46.6759 9.7055 45.3933 9.7055 44.0774C9.7055 34.2871 7.75012 26.3505 5.33803 26.3505C2.92594 26.3505 0.97056 34.2871 0.97056 44.0774C0.97056 45.3933 1.00589 46.6759 1.07292 47.9101H0V24.4341Z" fill="#F0F0FF"/>
<path fill-rule="evenodd" clip-rule="evenodd" d="M8.01675 22.5179C10.5629 22.5179 12.6269 14.2595 12.6269 4.07237C12.6269 2.67306 12.5879 1.31012 12.5141 0H13.5974V23.476H2.4361V0H3.51937C3.4456 1.31012 3.40664 2.67306 3.40664 4.07237C3.40664 14.2595 5.47065 22.5179 8.01675 22.5179Z" fill="#F0F0FF"/>
</svg>
